<svg width="1296.019693654267" height="593.0400000000001" viewbox="0 0 1200 0.4775333333333334" xmlns="http://www.w3.org/2000/svg">
<style>text {font-family: Arial; font-size: 14.0px ;}</style>
<rect x="5" y="5" width="1200" height="40.56" style="stroke:black;  stroke-width:0; fill:#ffffff; fill-opacity:1" />
<text x="10" y="28.4" font-weight="bold"></text>
<text x="189.0" y="20.44" font-weight="normal">2024</text>
<text x="667.105032822757" y="20.44" font-weight="normal">2025</text>
<line x1="662.105032822757" y1="5" x2="662.105032822757" y2="25.28" style="stroke:black; stroke-width:1.8; " />
<text x="24.0" y="30.64" font-weight="normal"></text>
<rect x="184.0" y="25.28" width="1021.0" height="20.28" style="stroke:black;  stroke-width:0; fill:white; fill-opacity:1" />
<rect x="184.0" y="25.28" width="67.02407002188181" height="20.28" style="stroke:black;  stroke-width:1.5; fill:white; fill-opacity:1" />
<text x="214.0120350109409" y="40.72" font-weight="normal">J</text>
<rect x="251.0240700218818" y="25.28" width="69.25820568927793" height="20.28" style="stroke:black;  stroke-width:1.5; fill:#e0e0e0; fill-opacity:1" />
<text x="282.1531728665208" y="40.72" font-weight="normal">J</text>
<rect x="320.28227571115974" y="25.28" width="69.25820568927793" height="20.28" style="stroke:black;  stroke-width:1.5; fill:#e0e0e0; fill-opacity:1" />
<text x="350.4113785557987" y="40.72" font-weight="normal">A</text>
<rect x="389.54048140043767" y="25.28" width="67.02407002188181" height="20.28" style="stroke:black;  stroke-width:1.5; fill:#e0e0e0; fill-opacity:1" />
<text x="418.5525164113786" y="40.72" font-weight="normal">S</text>
<rect x="456.5645514223195" y="25.28" width="69.25820568927793" height="20.28" style="stroke:black;  stroke-width:1.5; fill:white; fill-opacity:1" />
<text x="485.69365426695845" y="40.72" font-weight="normal">O</text>
<rect x="525.8227571115974" y="25.28" width="67.02407002188181" height="20.28" style="stroke:black;  stroke-width:1.5; fill:white; fill-opacity:1" />
<text x="554.3347921225384" y="40.72" font-weight="normal">N</text>
<rect x="592.8468271334792" y="25.28" width="69.25820568927782" height="20.28" style="stroke:black;  stroke-width:1.5; fill:white; fill-opacity:1" />
<text x="622.4759299781181" y="40.72" font-weight="normal">D</text>
<rect x="662.105032822757" y="25.28" width="69.25820568927793" height="20.28" style="stroke:black;  stroke-width:1.5; fill:#e0e0e0; fill-opacity:1" />
<text x="693.234135667396" y="40.72" font-weight="normal">J</text>
<rect x="731.363238512035" y="25.28" width="62.55579868708969" height="20.28" style="stroke:black;  stroke-width:1.5; fill:#e0e0e0; fill-opacity:1" />
<text x="758.1411378555798" y="40.72" font-weight="normal">F</text>
<rect x="793.9190371991247" y="25.28" width="69.25820568927793" height="20.28" style="stroke:black;  stroke-width:1.5; fill:#e0e0e0; fill-opacity:1" />
<text x="822.5481400437636" y="40.72" font-weight="normal">M</text>
<rect x="863.1772428884026" y="25.28" width="67.02407002188181" height="20.28" style="stroke:black;  stroke-width:1.5; fill:white; fill-opacity:1" />
<text x="892.1892778993436" y="40.72" font-weight="normal">A</text>
<rect x="930.2013129102844" y="25.28" width="69.25820568927804" height="20.28" style="stroke:black;  stroke-width:1.5; fill:white; fill-opacity:1" />
<text x="958.8304157549235" y="40.72" font-weight="normal">M</text>
<rect x="999.4595185995624" y="25.28" width="67.0240700218817" height="20.28" style="stroke:black;  stroke-width:1.5; fill:white; fill-opacity:1" />
<text x="1029.4715536105032" y="40.72" font-weight="normal">J</text>
<rect x="1066.4835886214441" y="25.28" width="69.25820568927793" height="20.28" style="stroke:black;  stroke-width:1.5; fill:#e0e0e0; fill-opacity:1" />
<text x="1097.612691466083" y="40.72" font-weight="normal">J</text>
<rect x="1135.741794310722" y="25.28" width="69.25820568927793" height="20.28" style="stroke:black;  stroke-width:1.5; fill:#e0e0e0; fill-opacity:1" />
<text x="1165.870897155361" y="40.72" font-weight="normal">A</text>
<text x="24.0" y="50.92" font-weight="normal"></text>
<rect x="5" y="60.56" width="1200" height="66.48" style="stroke:black;  stroke-width:0; fill:#c4e2fa; fill-opacity:1" />
<text x="10" y="83.96000000000001" font-weight="bold">Project management</text>
<rect x="184.0" y="60.56" width="1021.0" height="66.48" style="stroke:transparent;  stroke-width:1; fill:#c4e2fa; fill-opacity:1" />
<rect x="251.0240700218818" y="60.56" width="69.25820568927793" height="66.48" style="stroke:black;  stroke-width:0; fill:white; fill-opacity:0.5" />
<rect x="389.54048140043767" y="60.56" width="67.02407002188181" height="66.48" style="stroke:black;  stroke-width:0; fill:white; fill-opacity:0.5" />
<rect x="525.8227571115974" y="60.56" width="67.02407002188181" height="66.48" style="stroke:black;  stroke-width:0; fill:white; fill-opacity:0.5" />
<rect x="662.105032822757" y="60.56" width="69.25820568927793" height="66.48" style="stroke:black;  stroke-width:0; fill:white; fill-opacity:0.5" />
<rect x="793.9190371991247" y="60.56" width="69.25820568927793" height="66.48" style="stroke:black;  stroke-width:0; fill:white; fill-opacity:0.5" />
<rect x="930.2013129102844" y="60.56" width="69.25820568927804" height="66.48" style="stroke:black;  stroke-width:0; fill:white; fill-opacity:0.5" />
<rect x="1066.4835886214441" y="60.56" width="69.25820568927793" height="66.48" style="stroke:black;  stroke-width:0; fill:white; fill-opacity:0.5" />
<path d="M525.8227571115974, 116.97 L525.8227571115974, 106.83000000000001 L546.9606564551422, 106.83000000000001 L546.9606564551422, 101.76 L557.1006564551421, 111.9 L546.9606564551422, 122.04 L546.9606564551422, 116.97 L525.8227571115974, 116.97 Z" style="stroke: black; fill: none; stroke-width:1.8; " />
<path d="M666.5733041575493, 116.97 L666.5733041575493, 106.83000000000001 L721.223238512035, 106.83000000000001 L721.223238512035, 101.76 L731.363238512035, 111.9 L721.223238512035, 122.04 L721.223238512035, 116.97 L666.5733041575493, 116.97 Z" style="stroke: black; fill: none; stroke-width:1.8; " />
<path d="M821.2930365426695, 111.9 L825.1969365426695, 104.0922 L829.1008365426695, 111.9 L825.1969365426695, 119.7078 L821.2930365426695, 111.9 Z" style="stroke: red; fill: none; stroke-width:1.8; " />
<path d="M1163.115793654267, 111.9 L1167.019693654267, 104.0922 L1170.923593654267, 111.9 L1167.019693654267, 119.7078 L1163.115793654267, 111.9 Z" style="stroke: red; fill: red; stroke-width:1.8; " />
<text x="525.8227571115974" y="78.04" font-weight="normal">01-Nov - 15-Nov</text>
<text x="525.8227571115974" y="93.64" font-weight="normal">identify publisher</text>
<text x="666.5733041575493" y="78.04" font-weight="normal">03-Jan - 01-Feb</text>
<text x="666.5733041575493" y="93.64" font-weight="normal">contract negotiation</text>
<text x="817.1969365426695" y="78.04" font-weight="normal">15-Mar</text>
<text x="817.1969365426695" y="93.64" font-weight="normal">upfront payment</text>
<text x="1159.019693654267" y="78.04" font-weight="normal">15-Aug</text>
<text x="1159.019693654267" y="93.64" font-weight="normal">completion deadline</text>
<text x="24.0" y="117.4" font-weight="normal">Contract with publisher</text>
<rect x="5" y="132.04000000000002" width="1200" height="441.00000000000006" style="stroke:black;  stroke-width:0; fill:#fff4d6; fill-opacity:1" />
<text x="10" y="155.44000000000003" font-weight="bold">Drafting</text>
<rect x="184.0" y="132.04000000000002" width="1021.0" height="102.68" style="stroke:transparent;  stroke-width:1; fill:#fff4d6; fill-opacity:1" />
<rect x="251.0240700218818" y="132.04000000000002" width="69.25820568927793" height="102.68" style="stroke:black;  stroke-width:0; fill:white; fill-opacity:0.5" />
<rect x="389.54048140043767" y="132.04000000000002" width="67.02407002188181" height="102.68" style="stroke:black;  stroke-width:0; fill:white; fill-opacity:0.5" />
<rect x="525.8227571115974" y="132.04000000000002" width="67.02407002188181" height="102.68" style="stroke:black;  stroke-width:0; fill:white; fill-opacity:0.5" />
<rect x="662.105032822757" y="132.04000000000002" width="69.25820568927793" height="102.68" style="stroke:black;  stroke-width:0; fill:white; fill-opacity:0.5" />
<rect x="793.9190371991247" y="132.04000000000002" width="69.25820568927793" height="102.68" style="stroke:black;  stroke-width:0; fill:white; fill-opacity:0.5" />
<rect x="930.2013129102844" y="132.04000000000002" width="69.25820568927804" height="102.68" style="stroke:black;  stroke-width:0; fill:white; fill-opacity:0.5" />
<rect x="1066.4835886214441" y="132.04000000000002" width="69.25820568927793" height="102.68" style="stroke:black;  stroke-width:0; fill:white; fill-opacity:0.5" />
<path d="M184.0, 188.45000000000002 L184.0, 178.31000000000003 L410.67838074398253, 178.31000000000003 L410.67838074398253, 173.24 L420.8183807439825, 183.38000000000002 L410.67838074398253, 193.52000000000004 L410.67838074398253, 188.45000000000002 L184.0, 188.45000000000002 Z" style="stroke: black; fill: none; stroke-width:1.8; " />
<path d="M420.8183807439825, 188.45000000000002 L420.8183807439825, 178.31000000000003 L486.6389934354486, 178.31000000000003 L486.6389934354486, 173.24 L496.77899343544857, 183.38000000000002 L486.6389934354486, 193.52000000000004 L486.6389934354486, 188.45000000000002 L420.8183807439825, 188.45000000000002 Z" style="stroke: black; fill: none; stroke-width:1.8; " />
<rect x="496.77899343544857" y="178.31000000000003" width="6.702407002188181" height="10.14" style="stroke:black;  stroke-width:1.8; fill:none; fill-opacity:1" />
<path d="M505.7155361050328, 188.45000000000002 L505.7155361050328, 178.31000000000003 L555.5996061269146, 178.31000000000003 L555.5996061269146, 173.24 L565.7396061269146, 183.38000000000002 L555.5996061269146, 193.52000000000004 L555.5996061269146, 188.45000000000002 L505.7155361050328, 188.45000000000002 Z" style="stroke: black; fill: none; stroke-width:1.8; " />
<path d="M568.8357061269146, 183.38000000000002 L572.7396061269146, 175.5722 L576.6435061269146, 183.38000000000002 L572.7396061269146, 191.18780000000004 L568.8357061269146, 183.38000000000002 Z" style="stroke: red; fill: none; stroke-width:1.8; " />
<line x1="662.105032822757" y1="178.31000000000003" x2="755.6411378555798" y2="178.31000000000003" style="stroke:black; stroke-width:1.8; " />
<line x1="662.105032822757" y1="188.45000000000002" x2="755.6411378555798" y2="188.45000000000002" style="stroke:black; stroke-width:1.8; " />
<line x1="662.105032822757" y1="178.31000000000003" x2="662.105032822757" y2="188.45000000000002" style="stroke:black; stroke-width:1.8; " />
<path d="M769.6411378555798, 178.31000000000003 L815.0569365426695, 178.31000000000003 L815.0569365426695, 173.24 L825.1969365426695, 183.38000000000002 L815.0569365426695, 193.52000000000004 L815.0569365426695, 188.45000000000002 L769.6411378555798, 188.45000000000002 " style="stroke: black; fill: none; stroke-width:1.8; " />
<path d="M758.7372378555798, 183.38000000000002 L762.6411378555798, 175.5722 L766.5450378555798, 183.38000000000002 L762.6411378555798, 191.18780000000004 L758.7372378555798, 183.38000000000002 Z" style="stroke: black; fill: none; stroke-width:1.8; " />
<text x="184.0" y="149.52" font-weight="normal">01-Jun - 15-Sep</text>
<text x="184.0" y="165.12" font-weight="normal">draft 1</text>
<text x="420.8183807439825" y="149.52" font-weight="normal">15-Sep - 19-Oct</text>
<text x="420.8183807439825" y="165.12" font-weight="normal">start over</text>
<text x="564.7396061269146" y="149.52" font-weight="normal">22-Nov</text>
<text x="564.7396061269146" y="165.12" font-weight="normal">discuss with editor</text>
<text x="754.6411378555798" y="149.52" font-weight="normal">15-Feb</text>
<text x="754.6411378555798" y="165.12" font-weight="normal">discuss with editor</text>
<text x="496.77899343544857" y="211.00000000000003" font-weight="normal">19-Oct - 22-Oct</text>
<text x="496.77899343544857" y="226.60000000000002" font-weight="normal">next try</text>
<text x="662.105032822757" y="211.00000000000003" font-weight="normal">01-Jan - 15-Mar</text>
<text x="662.105032822757" y="226.60000000000002" font-weight="normal">rewrite</text>
<text x="24.0" y="188.88000000000002" font-weight="normal">Introduction</text>
<rect x="184.0" y="234.72000000000003" width="1021.0" height="102.68" style="stroke:transparent;  stroke-width:1; fill:#fff4d6; fill-opacity:1" />
<rect x="251.0240700218818" y="234.72000000000003" width="69.25820568927793" height="102.68" style="stroke:black;  stroke-width:0; fill:white; fill-opacity:0.5" />
<rect x="389.54048140043767" y="234.72000000000003" width="67.02407002188181" height="102.68" style="stroke:black;  stroke-width:0; fill:white; fill-opacity:0.5" />
<rect x="525.8227571115974" y="234.72000000000003" width="67.02407002188181" height="102.68" style="stroke:black;  stroke-width:0; fill:white; fill-opacity:0.5" />
<rect x="662.105032822757" y="234.72000000000003" width="69.25820568927793" height="102.68" style="stroke:black;  stroke-width:0; fill:white; fill-opacity:0.5" />
<rect x="793.9190371991247" y="234.72000000000003" width="69.25820568927793" height="102.68" style="stroke:black;  stroke-width:0; fill:white; fill-opacity:0.5" />
<rect x="930.2013129102844" y="234.72000000000003" width="69.25820568927804" height="102.68" style="stroke:black;  stroke-width:0; fill:white; fill-opacity:0.5" />
<rect x="1066.4835886214441" y="234.72000000000003" width="69.25820568927793" height="102.68" style="stroke:black;  stroke-width:0; fill:white; fill-opacity:0.5" />
<path d="M320.28227571115974, 291.13000000000005 L320.28227571115974, 280.99000000000007 L325.7812253829322, 280.99000000000007 L325.7812253829322, 275.9200000000001 L335.92122538293216, 286.06000000000006 L325.7812253829322, 296.20000000000005 L325.7812253829322, 291.13000000000005 L320.28227571115974, 291.13000000000005 Z" style="stroke: black; fill: none; stroke-width:1.8; " />
<path d="M385.63658140043765, 286.06000000000006 L389.54048140043767, 278.2522000000001 L393.4443814004377, 286.06000000000006 L389.54048140043767, 293.86780000000005 L385.63658140043765, 286.06000000000006 Z" style="stroke: black; fill: none; stroke-width:1.8; " />
<path d="M456.5645514223195, 291.13000000000005 L456.5645514223195, 280.99000000000007 L562.5996061269146, 280.99000000000007 L562.5996061269146, 275.9200000000001 L572.7396061269146, 286.06000000000006 L562.5996061269146, 296.20000000000005 L562.5996061269146, 291.13000000000005 L456.5645514223195, 291.13000000000005 Z" style="stroke: black; fill: none; stroke-width:1.8; " />
<path d="M597.3150984682713, 291.13000000000005 L597.3150984682713, 280.99000000000007 L721.223238512035, 280.99000000000007 L721.223238512035, 275.9200000000001 L731.363238512035, 286.06000000000006 L721.223238512035, 296.20000000000005 L721.223238512035, 291.13000000000005 L597.3150984682713, 291.13000000000005 Z" style="stroke: black; fill: none; stroke-width:1.8; " />
<path d="M731.363238512035, 291.13000000000005 L731.363238512035, 280.99000000000007 L736.8621881838075, 280.99000000000007 L736.8621881838075, 275.9200000000001 L747.0021881838074, 286.06000000000006 L736.8621881838075, 296.20000000000005 L736.8621881838075, 291.13000000000005 L731.363238512035, 291.13000000000005 Z" style="stroke: black; fill: none; stroke-width:1.8; " />
<path d="M758.7372378555798, 286.06000000000006 L762.6411378555798, 278.2522000000001 L766.5450378555798, 286.06000000000006 L762.6411378555798, 293.86780000000005 L758.7372378555798, 286.06000000000006 Z" style="stroke: black; fill: none; stroke-width:1.8; " />
<text x="320.28227571115974" y="252.20000000000002" font-weight="normal">01-Aug - 08-Aug</text>
<text x="320.28227571115974" y="267.8" font-weight="normal">draw figures</text>
<text x="456.5645514223195" y="252.20000000000002" font-weight="normal">01-Oct - 22-Nov</text>
<text x="456.5645514223195" y="267.8" font-weight="normal">procrastinate</text>
<text x="597.3150984682713" y="252.20000000000002" font-weight="normal">03-Dec - 01-Feb</text>
<text x="597.3150984682713" y="267.8" font-weight="normal">draft</text>
<text x="731.363238512035" y="252.20000000000002" font-weight="normal">01-Feb - 08-Feb</text>
<text x="731.363238512035" y="267.8" font-weight="normal">edit</text>
<text x="381.54048140043767" y="313.68000000000006" font-weight="normal">01-Sep</text>
<text x="381.54048140043767" y="329.2800000000001" font-weight="normal">outline</text>
<text x="754.6411378555798" y="313.68000000000006" font-weight="normal">15-Feb</text>
<text x="754.6411378555798" y="329.2800000000001" font-weight="normal">discuss with editor</text>
<text x="24.0" y="291.56000000000006" font-weight="normal">Chapter 1</text>
<rect x="184.0" y="337.40000000000003" width="1021.0" height="102.68" style="stroke:transparent;  stroke-width:1; fill:#fff4d6; fill-opacity:1" />
<rect x="251.0240700218818" y="337.40000000000003" width="69.25820568927793" height="102.68" style="stroke:black;  stroke-width:0; fill:white; fill-opacity:0.5" />
<rect x="389.54048140043767" y="337.40000000000003" width="67.02407002188181" height="102.68" style="stroke:black;  stroke-width:0; fill:white; fill-opacity:0.5" />
<rect x="525.8227571115974" y="337.40000000000003" width="67.02407002188181" height="102.68" style="stroke:black;  stroke-width:0; fill:white; fill-opacity:0.5" />
<rect x="662.105032822757" y="337.40000000000003" width="69.25820568927793" height="102.68" style="stroke:black;  stroke-width:0; fill:white; fill-opacity:0.5" />
<rect x="793.9190371991247" y="337.40000000000003" width="69.25820568927793" height="102.68" style="stroke:black;  stroke-width:0; fill:white; fill-opacity:0.5" />
<rect x="930.2013129102844" y="337.40000000000003" width="69.25820568927804" height="102.68" style="stroke:black;  stroke-width:0; fill:white; fill-opacity:0.5" />
<rect x="1066.4835886214441" y="337.40000000000003" width="69.25820568927793" height="102.68" style="stroke:black;  stroke-width:0; fill:white; fill-opacity:0.5" />
<path d="M624.1247264770241, 393.81 L624.1247264770241, 383.67 L656.4333041575493, 383.67 L656.4333041575493, 378.6 L666.5733041575493, 388.74 L656.4333041575493, 398.88 L656.4333041575493, 393.81 L624.1247264770241, 393.81 Z" style="stroke: black; fill: none; stroke-width:1.8; " />
<path d="M666.5733041575493, 393.81 L666.5733041575493, 383.67 L689.9453391684902, 383.67 L689.9453391684902, 378.6 L700.0853391684902, 388.74 L689.9453391684902, 398.88 L689.9453391684902, 393.81 L666.5733041575493, 393.81 Z" style="stroke: black; fill: none; stroke-width:1.8; " />
<text x="624.1247264770241" y="354.88000000000005" font-weight="normal">15-Dec - 03-Jan</text>
<text x="624.1247264770241" y="370.4800000000001" font-weight="normal">draft</text>
<text x="666.5733041575493" y="416.36" font-weight="normal">03-Jan - 18-Jan</text>
<text x="666.5733041575493" y="431.96000000000004" font-weight="normal">edit</text>
<text x="24.0" y="394.24" font-weight="normal">Chapter 2</text>
<rect x="184.0" y="440.08000000000004" width="1021.0" height="66.48" style="stroke:transparent;  stroke-width:1; fill:#fff4d6; fill-opacity:1" />
<rect x="251.0240700218818" y="440.08000000000004" width="69.25820568927793" height="66.48" style="stroke:black;  stroke-width:0; fill:white; fill-opacity:0.5" />
<rect x="389.54048140043767" y="440.08000000000004" width="67.02407002188181" height="66.48" style="stroke:black;  stroke-width:0; fill:white; fill-opacity:0.5" />
<rect x="525.8227571115974" y="440.08000000000004" width="67.02407002188181" height="66.48" style="stroke:black;  stroke-width:0; fill:white; fill-opacity:0.5" />
<rect x="662.105032822757" y="440.08000000000004" width="69.25820568927793" height="66.48" style="stroke:black;  stroke-width:0; fill:white; fill-opacity:0.5" />
<rect x="793.9190371991247" y="440.08000000000004" width="69.25820568927793" height="66.48" style="stroke:black;  stroke-width:0; fill:white; fill-opacity:0.5" />
<rect x="930.2013129102844" y="440.08000000000004" width="69.25820568927804" height="66.48" style="stroke:black;  stroke-width:0; fill:white; fill-opacity:0.5" />
<rect x="1066.4835886214441" y="440.08000000000004" width="69.25820568927793" height="66.48" style="stroke:black;  stroke-width:0; fill:white; fill-opacity:0.5" />
<path d="M700.0853391684902, 496.49000000000007 L700.0853391684902, 486.3500000000001 L781.5449015317287, 486.3500000000001 L781.5449015317287, 481.2800000000001 L791.6849015317287, 491.4200000000001 L781.5449015317287, 501.56000000000006 L781.5449015317287, 496.49000000000007 L700.0853391684902, 496.49000000000007 Z" style="stroke: black; fill: none; stroke-width:1.8; " />
<path d="M791.6849015317287, 496.49000000000007 L791.6849015317287, 486.3500000000001 L792.7155798687089, 486.3500000000001 L792.7155798687089, 481.2800000000001 L802.8555798687089, 491.4200000000001 L792.7155798687089, 501.56000000000006 L792.7155798687089, 496.49000000000007 L791.6849015317287, 496.49000000000007 Z" style="stroke: black; fill: none; stroke-width:1.8; " />
<text x="700.0853391684902" y="457.56000000000006" font-weight="normal">18-Jan - 28-Feb</text>
<text x="700.0853391684902" y="473.1600000000001" font-weight="normal">draft</text>
<text x="791.6849015317287" y="519.0400000000001" font-weight="normal">28-Feb - 05-Mar</text>
<text x="791.6849015317287" y="534.6400000000001" font-weight="normal">edit</text>
<text x="24.0" y="496.9200000000001" font-weight="normal">Chapter 3</text>
<rect x="184.0" y="506.56000000000006" width="1021.0" height="66.48" style="stroke:transparent;  stroke-width:1; fill:#fff4d6; fill-opacity:1" />
<rect x="251.0240700218818" y="506.56000000000006" width="69.25820568927793" height="66.48" style="stroke:black;  stroke-width:0; fill:white; fill-opacity:0.5" />
<rect x="389.54048140043767" y="506.56000000000006" width="67.02407002188181" height="66.48" style="stroke:black;  stroke-width:0; fill:white; fill-opacity:0.5" />
<rect x="525.8227571115974" y="506.56000000000006" width="67.02407002188181" height="66.48" style="stroke:black;  stroke-width:0; fill:white; fill-opacity:0.5" />
<rect x="662.105032822757" y="506.56000000000006" width="69.25820568927793" height="66.48" style="stroke:black;  stroke-width:0; fill:white; fill-opacity:0.5" />
<rect x="793.9190371991247" y="506.56000000000006" width="69.25820568927793" height="66.48" style="stroke:black;  stroke-width:0; fill:white; fill-opacity:0.5" />
<rect x="930.2013129102844" y="506.56000000000006" width="69.25820568927804" height="66.48" style="stroke:black;  stroke-width:0; fill:white; fill-opacity:0.5" />
<rect x="1066.4835886214441" y="506.56000000000006" width="69.25820568927793" height="66.48" style="stroke:black;  stroke-width:0; fill:white; fill-opacity:0.5" />
<path d="M825.1969365426695, 562.9700000000001 L825.1969365426695, 552.83 L884.3151422319476, 552.83 L884.3151422319476, 547.7600000000001 L894.4551422319475, 557.9000000000001 L884.3151422319476, 568.0400000000001 L884.3151422319476, 562.9700000000001 L825.1969365426695, 562.9700000000001 Z" style="stroke: black; fill: none; stroke-width:1.8; " />
<text x="825.1969365426695" y="524.0400000000001" font-weight="normal">15-Mar - 15-Apr</text>
<text x="825.1969365426695" y="539.6400000000001" font-weight="normal">draft</text>
<text x="24.0" y="563.4000000000001" font-weight="normal">Chapter 4</text>
</svg>